<?xml version="1.0" encoding="UTF-8"?>
<svg width="108" height="108" viewBox="0 0 108 108" xmlns="http://www.w3.org/2000/svg">
    <g fill="none" fill-rule="evenodd">
        <circle fill="#2AABEE" cx="54" cy="54" r="54"/>
        <path d="M54 28c-14.36 0-26 11.64-26 26s11.64 26 26 26 26-11.64 26-26-11.64-26-26-26zm12.84 23.52l-3.64 17.12c-.27 1.2-.98 1.5-1.98 0.93l-5.47-4.03-2.64 2.54c-.3.3-.54.54-1.1.54l.38-5.53 10.1-9.13c.44-.4-.1-.6-.68-.23l-12.48 7.86-5.38-1.7c-1.17-.36-1.18-1.17.24-1.74l21.02-8.1c.98-.35 1.83.24 1.52 1.47z" fill="#FFF"/>
    </g>
</svg>